<?xml version="1.0" encoding="UTF-8"?>
<svg width="24px" height="24px" viewBox="0 0 24 24" version="1.1" xmlns="http://www.w3.org/2000/svg" xmlns:xlink="http://www.w3.org/1999/xlink">
    <title>Group 9</title>
    <g id="Navigation" stroke="none" stroke-width="1" fill="none" fill-rule="evenodd">
        <g id="Expanderad" transform="translate(-961, -370)">
            <g id="Group-9" transform="translate(961, 370)">
                <polygon id="Bound" points="0 0 24 0 24 24 0 24"></polygon>
                <path d="M19.2023067,20.000233 C17.9512905,20.000233 16.7002743,19.5772275 15.6022601,18.8122176 C13.4062317,20.3512375 10.5981953,20.3512375 8.40216692,18.8122176 C7.3041527,19.5772275 6.05313651,20.000233 4.80212032,20.000233 L3.00209702,20.000233 L3.00209702,21.8002563 L4.80212032,21.8002563 C6.0441364,21.8002563 7.26815224,21.4852522 8.40216692,20.9092447 C10.6701963,22.0702598 13.3342308,22.0702598 15.6022601,20.9092447 C16.7362748,21.4942523 17.9602906,21.8002563 19.2023067,21.8002563 L21.00233,21.8002563 L21.00233,20.000233 L19.2023067,20.000233 L19.2023067,20.000233 Z M4.75711974,18.2002097 L4.80212032,18.2002097 C6.24213896,18.2002097 7.5201555,17.4081994 8.40216692,16.4001864 C9.28417833,17.4081994 10.5621949,18.2002097 12.0022135,18.2002097 C13.4422321,18.2002097 14.7202487,17.4081994 15.6022601,16.4001864 C16.4842715,17.4081994 17.7622881,18.2002097 19.2023067,18.2002097 L19.2473073,18.2002097 L20.9483293,12.1881319 C21.0203302,11.9541288 21.00233,11.7021256 20.8943286,11.4861228 C20.7863272,11.27012 20.5883246,11.1081179 20.3543216,11.036117 L19.2023067,10.6581121 L19.2023067,6.50005824 C19.2023067,5.51004543 18.3922962,4.70003495 17.4022834,4.70003495 L14.7022485,4.70003495 L14.7022485,2 L9.30217856,2 L9.30217856,4.70003495 L6.60214362,4.70003495 C5.6121308,4.70003495 4.80212032,5.51004543 4.80212032,6.50005824 L4.80212032,10.6581121 L3.64110529,11.036117 C3.40710226,11.1081179 3.2090997,11.27012 3.1010983,11.4861228 C2.99309691,11.7021256 2.96609656,11.9541288 3.0470976,12.1881319 L4.75711974,18.2002097 L4.75711974,18.2002097 Z M6.60214362,6.50005824 L17.4022834,6.50005824 L17.4022834,10.0731045 L12.0022135,8.30008154 L6.60214362,10.0731045 L6.60214362,6.50005824 L6.60214362,6.50005824 Z" id="Ikon" fill="#91CFC9"></path>
            </g>
        </g>
    </g>
</svg>