<?xml version="1.0" encoding="UTF-8"?>
<svg width="24px" height="24px" viewBox="0 0 24 24" version="1.1" xmlns="http://www.w3.org/2000/svg" xmlns:xlink="http://www.w3.org/1999/xlink">
    <title>Group 11</title>
    <g id="Navigation" stroke="none" stroke-width="1" fill="none" fill-rule="evenodd">
        <g id="Expanderad" transform="translate(-960, -148)">
            <g id="Group-11" transform="translate(960, 148)">
                <polygon id="Bound" points="0 0 24 0 24 24 0 24"></polygon>
                <path d="M4.12820513,11.9298081 C3.52991453,11.9298081 3.02564103,11.6627972 2.61538462,11.1287753 C2.20512821,10.5947534 2,9.93835144 2,9.15956949 C2,8.38078754 2.20512821,7.72438561 2.61538462,7.1903637 C3.02564103,6.65634179 3.52991453,6.38933084 4.12820513,6.38933084 C4.72649573,6.38933084 5.22649573,6.65634179 5.62820513,7.1903637 C6.02991453,7.72438561 6.23076923,8.38078754 6.23076923,9.15956949 C6.23076923,9.93835144 6.02564103,10.5947534 5.61538462,11.1287753 C5.20512821,11.6627972 4.70940171,11.9298081 4.12820513,11.9298081 Z M8.82051282,7.5404773 C8.23931624,7.5404773 7.74358974,7.2718481 7.33333333,6.7345897 C6.92307692,6.19733129 6.71794872,5.54814405 6.71794872,4.78702798 C6.71794872,4.00352614 6.92307692,3.34314601 7.33333333,2.80588761 C7.74358974,2.2686292 8.24786325,2 8.84615385,2 C9.42735043,2 9.92307692,2.2686292 10.3333333,2.80588761 C10.7435897,3.34314601 10.9487179,4.00352614 10.9487179,4.78702798 C10.9487179,5.57052982 10.7435897,6.2253135 10.3333333,6.75137902 C9.92307692,7.27744454 9.41880342,7.5404773 8.82051282,7.5404773 Z M15.1794872,7.5404773 C14.5811966,7.5404773 14.0769231,7.2718481 13.6666667,6.7345897 C13.2564103,6.19733129 13.0512821,5.54814405 13.0512821,4.78702798 C13.0512821,4.00352614 13.2564103,3.34314601 13.6666667,2.80588761 C14.0769231,2.2686292 14.5811966,2 15.1794872,2 C15.7606838,2 16.2606838,2.2686292 16.6794872,2.80588761 C17.0982906,3.34314601 17.3076923,4.00352614 17.3076923,4.78702798 C17.3076923,5.57052982 17.0982906,6.2253135 16.6794872,6.75137902 C16.2606838,7.27744454 15.7606838,7.5404773 15.1794872,7.5404773 L15.1794872,7.5404773 Z M19.8717949,11.9298081 C19.2735043,11.9298081 18.7735043,11.6627972 18.3717949,11.1287753 C17.9700855,10.5947534 17.7692308,9.93835144 17.7692308,9.15956949 C17.7692308,8.38078754 17.974359,7.72438561 18.3846154,7.1903637 C18.7948718,6.65634179 19.2905983,6.38933084 19.8717949,6.38933084 C20.4700855,6.38933084 20.974359,6.65634179 21.3846154,7.1903637 C21.7948718,7.72438561 22,8.38078754 22,9.15956949 C22,9.93835144 21.7948718,10.5947534 21.3846154,11.1287753 C20.974359,11.6627972 20.4700855,11.9298081 19.8717949,11.9298081 L19.8717949,11.9298081 Z M6.51282051,22 C5.84615385,22 5.2991453,21.7423179 4.87179487,21.2269537 C4.44444444,20.7115895 4.23076923,20.1045079 4.23076923,19.4057089 C4.23076923,18.6545001 4.47008547,17.9993761 4.94871795,17.4403369 C5.42735043,16.8812978 5.91452991,16.3309936 6.41025641,15.7894244 C6.82051282,15.3526751 7.19230769,14.8940883 7.52564103,14.413664 C7.85897436,13.9332397 8.1965812,13.448448 8.53846154,12.9592887 C8.98290598,12.3128997 9.47863248,11.7145531 10.025641,11.1642489 C10.5726496,10.6139448 11.2307692,10.3387927 12,10.3387927 C12.7692308,10.3387927 13.4358974,10.6139448 14,11.1642489 C14.5641026,11.7145531 15.0598291,12.3216347 15.4871795,12.9854937 C15.8290598,13.4746529 16.1666667,13.9550772 16.5,14.4267665 C16.8333333,14.8984558 17.1965812,15.3526751 17.5897436,15.7894244 C18.0854701,16.3309936 18.5726496,16.8812978 19.0512821,17.4403369 C19.5299145,17.9993761 19.7692308,18.6545001 19.7692308,19.4057089 C19.7692308,20.1045079 19.5555556,20.7115895 19.1282051,21.2269537 C18.7008547,21.7423179 18.1538462,22 17.4871795,22 C16.5641026,22 15.6495726,21.9213851 14.7435897,21.7641554 C13.8376068,21.6069256 12.9230769,21.5283107 12,21.5283107 C11.0769231,21.5283107 10.1623932,21.6069256 9.25641026,21.7641554 C8.35042735,21.9213851 7.43589744,22 6.51282051,22 L6.51282051,22 Z" id="Shape" fill="#91CFC9" fill-rule="nonzero"></path>
            </g>
        </g>
    </g>
</svg>