<?xml version="1.0" encoding="UTF-8"?>
<svg width="24px" height="24px" viewBox="0 0 24 24" version="1.1" xmlns="http://www.w3.org/2000/svg" xmlns:xlink="http://www.w3.org/1999/xlink">
    <title>Group 7</title>
    <g id="Navigation" stroke="none" stroke-width="1" fill="none" fill-rule="evenodd">
        <g id="Expanderad" transform="translate(-640, -148)">
            <g id="Group-7" transform="translate(640, 148)">
                <polygon id="Bound" points="0 0 24 0 24 24 0 24"></polygon>
                <path d="M12,22 C10.6288736,22 9.3350193,21.7371747 8.11843715,21.2115242 C6.90183746,20.6858913 5.84076449,19.9703104 4.93521825,19.0647817 C4.02968955,18.1592355 3.31410872,17.0981625 2.78847576,15.8815628 C2.26282525,14.6649807 2,13.3711264 2,12 C2,10.6180841 2.26282525,9.32152804 2.78847576,8.11033187 C3.31410872,6.8991357 4.02968955,5.84076449 4.93521825,4.93521825 C5.84076449,4.02968955 6.90183746,3.31410872 8.11843715,2.78847576 C9.3350193,2.26282525 10.6288736,2 12,2 C13.3819159,2 14.678472,2.26282525 15.8896681,2.78847576 C17.1008643,3.31410872 18.1592355,4.02968955 19.0647817,4.93521825 C19.9703104,5.84076449 20.6858913,6.8991357 21.2115242,8.11033187 C21.7371747,9.32152804 22,10.6180841 22,12 C22,13.3711264 21.7371747,14.6649807 21.2115242,15.8815628 C20.6858913,17.0981625 19.9703104,18.1592355 19.0647817,19.0647817 C18.1592355,19.9703104 17.1008643,20.6858913 15.8896681,21.2115242 C14.678472,21.7371747 13.3819159,22 12,22 Z M6.73682825,10.8461549 C7.00133772,10.8461549 7.2260313,10.7537072 7.41090898,10.568812 C7.5958042,10.3839343 7.68825181,10.1592408 7.68825181,9.8947313 C7.68825181,9.63022183 7.5958042,9.40552826 7.41090898,9.22065058 C7.2260313,9.03575536 7.00133772,8.94330775 6.73682825,8.94330775 C6.47231879,8.94330775 6.24762521,9.03575536 6.06274753,9.22065058 C5.87785231,9.40552826 5.7854047,9.63022183 5.7854047,9.8947313 C5.7854047,10.1592408 5.87785231,10.3839343 6.06274753,10.568812 C6.24762521,10.7537072 6.47231879,10.8461549 6.73682825,10.8461549 Z M9.8947313,7.68825181 C10.1592408,7.68825181 10.3839343,7.5958042 10.568812,7.41090898 C10.7537072,7.2260313 10.8461549,7.00133772 10.8461549,6.73682825 C10.8461549,6.47231879 10.7537072,6.24762521 10.568812,6.06274753 C10.3839343,5.87785231 10.1592408,5.7854047 9.8947313,5.7854047 C9.63022183,5.7854047 9.40552826,5.87785231 9.22065058,6.06274753 C9.03575536,6.24762521 8.94330775,6.47231879 8.94330775,6.73682825 C8.94330775,7.00133772 9.03575536,7.2260313 9.22065058,7.41090898 C9.40552826,7.5958042 9.63022183,7.68825181 9.8947313,7.68825181 Z M17.2631717,10.8461549 C17.5276812,10.8461549 17.7523748,10.7537072 17.9372525,10.568812 C18.1221477,10.3839343 18.2145953,10.1592408 18.2145953,9.8947313 C18.2145953,9.63022183 18.1221477,9.40552826 17.9372525,9.22065058 C17.7523748,9.03575536 17.5276812,8.94330775 17.2631717,8.94330775 C16.9986623,8.94330775 16.7739687,9.03575536 16.589091,9.22065058 C16.4041958,9.40552826 16.3117482,9.63022183 16.3117482,9.8947313 C16.3117482,10.1592408 16.4041958,10.3839343 16.589091,10.568812 C16.7739687,10.7537072 16.9986623,10.8461549 17.2631717,10.8461549 Z M12,13.8420838 C12.511475,13.8420838 12.9463534,13.6629342 13.304635,13.304635 C13.6629342,12.9463534 13.8420838,12.511475 13.8420838,12 C13.8420838,11.7719292 13.8019346,11.5533058 13.7216361,11.3441299 C13.6413377,11.1349539 13.5276444,10.9460235 13.3805563,10.7773389 L14.9230603,6.89469709 C15.0121307,6.68822286 15.0131483,6.48276618 14.926113,6.27832705 C14.8390601,6.07387037 14.6922966,5.92710683 14.4858223,5.83803642 C14.2901551,5.74898355 14.0900932,5.74629056 13.8856365,5.82995745 C13.6811974,5.91362433 13.5398374,6.06206332 13.4615565,6.27527441 L11.8987892,10.1579162 C11.4129634,10.1916531 11.001357,10.3839519 10.6639702,10.7348125 C10.3266009,11.0856906 10.1579162,11.5074198 10.1579162,12 C10.1579162,12.511475 10.3370658,12.9463534 10.695365,13.304635 C11.0536466,13.6629342 11.488525,13.8420838 12,13.8420838 Z M7.70443606,19.2064926 C8.35894656,18.8286145 9.04855364,18.541833 9.7732573,18.3461483 C10.497961,18.1504636 11.2402085,18.0526212 12,18.0526212 C12.7597915,18.0526212 13.502039,18.1504636 14.2267427,18.3461483 C14.9514464,18.541833 15.6410534,18.8286145 16.2955639,19.2064926 L17.6923045,18.1822268 C16.8488461,17.6235236 15.9422998,17.1990926 14.9726657,16.908934 C14.0030316,16.6187929 13.012143,16.4737223 12,16.4737223 C10.987857,16.4737223 9.99696841,16.6187929 9.02733428,16.908934 C8.05770015,17.1990926 7.15115391,17.6235236 6.30769555,18.1822268 L7.70443606,19.2064926 Z" id="Shape" fill="#91CFC9" fill-rule="nonzero"></path>
            </g>
        </g>
    </g>
</svg>