<svg width="24" height="24" viewBox="0 0 24 24" fill="none" xmlns="http://www.w3.org/2000/svg">
<g clip-path="url(#clip0_69_14)">
<path d="M17 9.04001H19V7.04001H17V9.04001ZM17 13.04H19V11.04H17V13.04ZM17 17.04H19V15.04H17V17.04ZM17 21.04V19.04H21V5.04001H12V6.44001L10 4.99001V3.04001H23V21.04H17ZM1 21.04V11.04L8 6.04001L15 11.04V21.04H9V16.04H7V21.04H1ZM3 19.04H5V14.04H11V19.04H13V12.04L8 8.49001L3 12.04V19.04Z" fill="#91CFC9"/>
</g>
<defs>
<clipPath id="clip0_69_14">
<rect width="24" height="24" fill="white"/>
</clipPath>
</defs>
</svg>
