<?xml version="1.0" encoding="UTF-8"?>
<svg width="24px" height="24px" viewBox="0 0 24 24" version="1.1" xmlns="http://www.w3.org/2000/svg" xmlns:xlink="http://www.w3.org/1999/xlink">
    <title>Group 21</title>
    <g id="Navigation" stroke="none" stroke-width="1" fill="none" fill-rule="evenodd">
        <g id="Expanderad" transform="translate(-1257, -371)">
            <g id="Group-27-Copy" transform="translate(1257, 370)">
                <g id="Group-21" transform="translate(0, 1)">
                    <polygon id="Bound" points="0 0 24 0 24 24 0 24"></polygon>
                    <path d="M2,19 L2,15.25 C2,14.796875 2.15530303,14.4101563 2.46590909,14.0898438 C2.77651515,13.7695312 3.15151515,13.609375 3.59090909,13.609375 L6.79545455,13.609375 C7.0530303,13.609375 7.29924242,13.6757812 7.53409091,13.8085938 C7.76893939,13.9414063 7.96969697,14.125 8.13636364,14.359375 C8.57575758,15.015625 9.13636364,15.5234375 9.81818182,15.8828125 C10.5,16.2421875 11.2272727,16.421875 12,16.421875 C12.7727273,16.421875 13.5,16.2421875 14.1818182,15.8828125 C14.8636364,15.5234375 15.4318182,15.015625 15.8863636,14.359375 C16.0530303,14.125 16.25,13.9414063 16.4772727,13.8085938 C16.7045455,13.6757812 16.9469697,13.609375 17.2045455,13.609375 L20.4090909,13.609375 C20.8484848,13.609375 21.2234848,13.7695312 21.5340909,14.0898438 C21.844697,14.4101563 22,14.796875 22,15.25 L22,19 L16.0909091,19 L16.0909091,16.2109375 C15.5454545,16.7265625 14.9204545,17.125 14.2159091,17.40625 C13.5113636,17.6875 12.7727273,17.828125 12,17.828125 C11.2272727,17.828125 10.4924242,17.6875 9.79545455,17.40625 C9.09848485,17.125 8.46969697,16.7265625 7.90909091,16.2109375 L7.90909091,19 L2,19 Z M12,15.015625 C11.469697,15.015625 10.9583333,14.8867188 10.4659091,14.6289063 C9.97348485,14.3710938 9.57575758,14.015625 9.27272727,13.5625 C9.03030303,13.203125 8.73863636,12.9140625 8.39772727,12.6953125 C8.05681818,12.4765625 7.68939394,12.328125 7.29545455,12.25 C7.73484848,11.78125 8.42424242,11.421875 9.36363636,11.171875 C10.3030303,10.921875 11.1818182,10.796875 12,10.796875 C12.8181818,10.796875 13.7007576,10.921875 14.6477273,11.171875 C15.594697,11.421875 16.2878788,11.78125 16.7272727,12.25 C16.3333333,12.328125 15.9659091,12.4765625 15.625,12.6953125 C15.2840909,12.9140625 14.9924242,13.203125 14.75,13.5625 C14.4469697,14.015625 14.0492424,14.3710938 13.5568182,14.6289063 C13.0643939,14.8867188 12.5454545,15.015625 12,15.015625 Z M4.72727273,11.96875 C4.04545455,11.96875 3.45833333,11.7148438 2.96590909,11.2070313 C2.47348485,10.6992188 2.22727273,10.09375 2.22727273,9.390625 C2.22727273,8.671875 2.47348485,8.0625 2.96590909,7.5625 C3.45833333,7.0625 4.04545455,6.8125 4.72727273,6.8125 C5.42424242,6.8125 6.01515152,7.0625 6.5,7.5625 C6.98484848,8.0625 7.22727273,8.671875 7.22727273,9.390625 C7.22727273,10.09375 6.98484848,10.6992188 6.5,11.2070313 C6.01515152,11.7148438 5.42424242,11.96875 4.72727273,11.96875 Z M19.2727273,11.96875 C18.5909091,11.96875 18.0037879,11.7148438 17.5113636,11.2070313 C17.0189394,10.6992188 16.7727273,10.09375 16.7727273,9.390625 C16.7727273,8.671875 17.0189394,8.0625 17.5113636,7.5625 C18.0037879,7.0625 18.5909091,6.8125 19.2727273,6.8125 C19.969697,6.8125 20.5606061,7.0625 21.0454545,7.5625 C21.530303,8.0625 21.7727273,8.671875 21.7727273,9.390625 C21.7727273,10.09375 21.530303,10.6992188 21.0454545,11.2070313 C20.5606061,11.7148438 19.969697,11.96875 19.2727273,11.96875 Z M12,9.15625 C11.3181818,9.15625 10.7310606,8.90234375 10.2386364,8.39453125 C9.74621212,7.88671875 9.5,7.28125 9.5,6.578125 C9.5,5.859375 9.74621212,5.25 10.2386364,4.75 C10.7310606,4.25 11.3181818,4 12,4 C12.6969697,4 13.2878788,4.25 13.7727273,4.75 C14.2575758,5.25 14.5,5.859375 14.5,6.578125 C14.5,7.28125 14.2575758,7.88671875 13.7727273,8.39453125 C13.2878788,8.90234375 12.6969697,9.15625 12,9.15625 Z" id="Shape" fill="#91CFC9" fill-rule="nonzero"></path>
                </g>
            </g>
        </g>
    </g>
</svg>