<?xml version="1.0" encoding="UTF-8"?>
<svg width="24px" height="24px" viewBox="0 0 24 24" version="1.1" xmlns="http://www.w3.org/2000/svg" xmlns:xlink="http://www.w3.org/1999/xlink">
    <title>Group</title>
    <g id="Navigation" stroke="none" stroke-width="1" fill="none" fill-rule="evenodd">
        <g id="Expanderad" transform="translate(-365, -280)">
            <g id="Group" transform="translate(365, 280)">
                <rect id="Bound" x="0" y="0" width="24" height="24"></rect>
                <path d="M20,11 C19.82,11 19.64,11.03 19.47,11.05 L17.41,9 L20,9 L20,6 L16.28,7.86 L13.41,5 L9,5 L9,7 L12.59,7 L14.59,9 L11,9 L7,11 L5,9 L0,9 L0,11 L4,11 C1.79,11 0,12.79 0,15 C0,17.21 1.79,19 4,19 C6.21,19 8,17.21 8,15 L10,17 L13,17 L16.49,10.9 L17.5,11.91 C16.59,12.64 16,13.75 16,15 C16,17.21 17.79,19 20,19 C22.21,19 24,17.21 24,15 C24,12.79 22.21,11 20,11 Z M4,17 C2.9,17 2,16.1 2,15 C2,13.9 2.9,13 4,13 C5.1,13 6,13.9 6,15 C6,16.1 5.1,17 4,17 Z M20,17 C18.9,17 18,16.1 18,15 C18,13.9 18.9,13 20,13 C21.1,13 22,13.9 22,15 C22,16.1 21.1,17 20,17 Z" id="Ikon" fill="#91CFC9" fill-rule="nonzero"></path>
            </g>
        </g>
    </g>
</svg>